HIERARCHY
ROOT Hips
{
	OFFSET 0.00 0.00 0.00
	CHANNELS 6 Xposition Yposition Zposition Xrotation Yrotation Zrotation
	JOINT LeftUpLeg
	{
		OFFSET 2.83210 0.00000 0.00000
		CHANNELS 3 Xrotation Yrotation Zrotation
		JOINT LeftLeg
		{
			OFFSET 0.00000 -16.27150 0.00000
			CHANNELS 3 Xrotation Yrotation Zrotation
			JOINT LeftFoot
			{
				OFFSET 0.00000 -14.95190 0.00000
				CHANNELS 3 Xrotation Yrotation Zrotation
				JOINT LeftToeBase
				{
					OFFSET 0.00000 -1.07991 4.03030
					CHANNELS 3 Xrotation Yrotation Zrotation
					End Site
					{
						OFFSET 0.00000 0.00000 2.95275
					}
				}
			}
		}
	}
	JOINT RightUpLeg
	{
		OFFSET -2.83210 0.00000 0.00000
		CHANNELS 3 Xrotation Yrotation Zrotation
		JOINT RightLeg
		{
			OFFSET 0.00000 -16.27150 0.00000
			CHANNELS 3 Xrotation Yrotation Zrotation
			JOINT RightFoot
			{
				OFFSET 0.00000 -14.95190 0.00000
				CHANNELS 3 Xrotation Yrotation Zrotation
				JOINT RightToeBase
				{
					OFFSET 0.00000 -1.07991 4.03030
					CHANNELS 3 Xrotation Yrotation Zrotation
					End Site
					{
						OFFSET 0.00000 0.00000 2.95275
					}
				}
			}
		}
	}
	JOINT Spine
	{
		OFFSET 0.00000 0.03937 0.00000
		CHANNELS 3 Xrotation Yrotation Zrotation
		JOINT Spine1
		{
			OFFSET 0.00000 8.01054 0.00000
			CHANNELS 3 Xrotation Yrotation Zrotation
			JOINT Neck
			{
				OFFSET 0.00000 8.21888 0.00000
				CHANNELS 3 Xrotation Yrotation Zrotation
				JOINT Head
				{
					OFFSET 0.00000 3.25664 0.00000
					CHANNELS 3 Xrotation Yrotation Zrotation
					End Site
					{
						OFFSET 0.00000 4.52755 0.00000
					}
				}
			}
			JOINT LeftShoulder
			{
				OFFSET 0.00000 8.21888 0.00000
				CHANNELS 3 Xrotation Yrotation Zrotation
				JOINT LeftArm
				{
					OFFSET 6.52904 -0.00002 0.00000
					CHANNELS 3 Xrotation Yrotation Zrotation
					JOINT LeftForeArm
					{
						OFFSET 10.44840 -0.00004 0.00000
						CHANNELS 3 Xrotation Yrotation Zrotation
						JOINT LeftHand
						{
							OFFSET 8.94727 -0.00003 0.00000
							CHANNELS 3 Xrotation Yrotation Zrotation
							JOINT LeftHandThumb
							{
								OFFSET 0.00000 0.00000 0.00000
								CHANNELS 3 Xrotation Yrotation Zrotation
								End Site
								{
									OFFSET 0.00000 0.00000 3.93700
								}
							}
							JOINT L_Wrist_End
							{
								OFFSET 3.93700 -0.00001 0.00000
								CHANNELS 3 Xrotation Yrotation Zrotation
							}
						}
					}
				}
			}
			JOINT RightShoulder
			{
				OFFSET 0.00000 8.21888 0.00000
				CHANNELS 3 Xrotation Yrotation Zrotation
				JOINT RightArm
				{
					OFFSET -6.52904 -0.00002 0.00000
					CHANNELS 3 Xrotation Yrotation Zrotation
					JOINT RightForeArm
					{
						OFFSET -10.44840 -0.00004 0.00000
						CHANNELS 3 Xrotation Yrotation Zrotation
						JOINT RightHand
						{
							OFFSET -8.94727 -0.00003 0.00000
							CHANNELS 3 Xrotation Yrotation Zrotation
							JOINT RightHandThumb
							{
								OFFSET 0.00000 0.00000 0.00000
								CHANNELS 3 Xrotation Yrotation Zrotation
								End Site
								{
									OFFSET 0.00000 0.00000 3.93700
								}
							}
							JOINT R_Wrist_End
							{
								OFFSET -5.39369 -0.00002 0.00000
								CHANNELS 3 Xrotation Yrotation Zrotation
							}
						}
					}
				}
			}
		}
	}
}
MOTION
Frames: 17
Frame Time: 0.008333
 0.2842 33.0700 -11.0824 149.4991 -81.1190 151.3264 -16.5499 21.2836 18.8454 14.8180 -0.0000 -0.0000 7.4572 25.8665 -1.6665 12.2600 0.0000 0.0000 -4.8135 4.1873 -4.9543 12.3480 -0.0000 0.0000 -10.0068 -22.3920 22.2242 19.5196 0.0000 0.0000 -8.5736 3.5609 -7.7036 15.4417 -4.9994 8.3597 -0.7849 23.3050 -4.4397 -56.2309 -32.4610 -23.3662 17.6370 23.3729 2.3481 -7.0245 7.9690 -70.3493 0.0000 0.5589 -0.0000 5.5881 5.3491 -6.1766 0.0000 0.0000 0.0000 0.0000 0.0000 0.0000 19.6518 -22.7789 -3.5697 -3.5394 15.1587 67.5672 -0.0000 4.1073 0.0000 0.2430 -9.5040 -10.6464 -0.0000 -0.0000 -0.0000 -0.0000 -0.0000 -0.0000
 0.1957 33.0577 -10.9775 149.3000 -81.1709 151.1012 -16.4111 20.9077 18.8724 15.0199 0.0000 -0.0000 7.5518 25.5010 -1.5347 12.2706 -0.0000 0.0000 -4.7232 4.1062 -5.1342 12.4652 0.0000 -0.0000 -10.0761 -22.3541 22.3807 19.5196 -0.0000 -0.0000 -8.6116 3.5378 -7.6112 15.2417 -5.0637 8.2955 -0.1620 23.0541 -4.1716 -57.4272 -31.9037 -23.6173 17.6993 23.3313 2.2357 -7.1886 7.9363 -69.9030 0.0000 0.4458 -0.0000 6.0545 5.4761 -5.9611 -0.0000 0.0000 -0.0000 -0.0000 0.0000 -0.0000 19.7279 -22.5352 -3.4202 -3.5465 15.5801 67.6850 -0.0000 4.0201 0.0000 0.7406 -9.7450 -10.7167 0.0000 0.0000 -0.0000 0.0000 0.0000 -0.0000
 0.1029 33.0409 -10.8680 149.2512 -81.2666 151.0466 -16.1535 20.4118 18.8195 15.2043 0.0000 -0.0000 7.6370 25.0012 -1.2628 12.0974 -0.0000 0.0000 -4.5723 4.0375 -5.3440 12.5735 0.0000 0.0000 -10.1772 -22.3591 22.4514 19.5196 -0.0000 0.0000 -8.6258 3.5524 -7.5453 15.0280 -5.0783 8.2320 0.3551 23.0850 -4.2451 -58.3919 -31.9535 -23.7908 17.7118 23.2155 2.2536 -7.2885 7.5521 -69.5487 0.0000 0.5077 -0.0000 6.3852 5.4891 -5.8550 -0.0000 -0.0000 -0.0000 -0.0000 -0.0000 -0.0000 19.8371 -22.2889 -3.2631 -3.4722 16.0323 67.8015 -0.0000 3.9697 0.0000 0.9718 -9.8520 -10.9055 -0.0000 0.0000 -0.0000 -0.0000 0.0000 -0.0000
 0.0077 33.0220 -10.7503 149.4802 -81.3909 151.3020 -15.7565 19.7965 18.6682 15.3640 -0.0000 0.0000 7.7310 24.4200 -1.0464 11.9613 0.0000 0.0000 -4.3681 4.0184 -5.6033 12.7037 -0.0000 0.0000 -10.3030 -22.3992 22.6185 19.5196 -0.0000 -0.0000 -8.5887 3.5572 -7.4996 14.8384 -5.0936 8.1626 0.7022 23.2383 -4.4366 -59.1910 -32.2204 -23.9239 17.7122 23.2091 2.2227 -7.4923 7.0474 -69.1726 0.0000 0.6692 -0.0000 6.8816 5.5424 -5.9765 -0.0000 -0.0000 0.0000 -0.0000 -0.0000 0.0000 19.9807 -22.0398 -3.0725 -3.4204 16.5496 67.8586 -0.0000 3.9867 0.0000 1.0192 -9.9250 -11.1563 -0.0000 0.0000 -0.0000 -0.0000 0.0000 -0.0000
 -0.0833 33.0003 -10.6297 149.2283 -81.5153 151.0319 -15.4281 19.1258 18.5511 15.4846 -0.0000 0.0000 7.9861 23.6975 -1.2557 12.1867 -0.0000 -0.0000 -4.2579 3.9419 -5.8183 12.8787 0.0000 0.0000 -10.4120 -22.4174 22.6913 19.5196 -0.0000 0.0000 -8.6282 3.5487 -7.4626 14.6842 -5.1107 8.1793 0.7734 23.3823 -4.5533 -59.6166 -32.4784 -24.0083 17.7001 23.0410 2.2052 -7.6133 6.7159 -68.8273 0.0000 0.6646 -0.0000 7.1000 5.5206 -6.0415 0.0000 -0.0000 0.0000 0.0000 -0.0000 0.0000 20.0423 -21.7155 -2.9569 -3.4347 16.9026 67.9356 -0.0000 3.8511 0.0000 1.1820 -9.8238 -11.2403 0.0000 0.0000 -0.0000 0.0000 0.0000 -0.0000
 -0.1755 32.9761 -10.4983 149.0775 -81.6844 150.9011 -14.9725 18.2673 18.3036 15.5867 0.0000 0.0000 8.1963 22.9329 -1.3527 11.7790 -0.0000 -0.0000 -4.1103 3.8561 -6.0942 13.0728 -0.0000 0.0000 -10.5675 -22.4669 22.8219 19.5196 0.0000 0.0000 -8.6307 3.5324 -7.4421 14.5422 -5.1288 8.1931 0.9390 23.5178 -4.7218 -60.2085 -32.7390 -24.1250 17.6504 22.9937 2.1930 -7.8592 6.2482 -68.5069 0.0000 0.7635 -0.0000 7.6031 5.5864 -6.2206 -0.0000 -0.0000 -0.0000 -0.0000 -0.0000 -0.0000 20.1229 -21.4505 -2.8523 -3.4242 17.5468 67.9919 -0.0000 3.7500 0.0000 1.0854 -9.7680 -11.4340 0.0000 0.0000 0.0000 0.0000 0.0000 0.0000
 -0.2666 32.9501 -10.3600 148.7751 -81.8551 150.6114 -14.5260 17.4100 18.0424 15.6348 -0.0000 0.0000 8.5599 22.0048 -1.7501 11.5000 -0.0000 -0.0000 -3.9987 3.7427 -6.3796 13.3032 0.0000 -0.0000 -10.7142 -22.4921 23.0509 19.5196 -0.0000 0.0000 -8.6421 3.5319 -7.4175 14.3935 -5.1264 8.2254 0.9569 23.5575 -4.7721 -60.6509 -32.9094 -24.2480 17.6139 22.8806 2.1830 -8.1515 5.8624 -68.2050 0.0000 0.8158 -0.0000 8.0206 5.7081 -6.3380 0.0000 -0.0000 0.0000 0.0000 -0.0000 0.0000 20.2061 -21.2134 -2.7603 -3.4536 18.2191 68.0445 -0.0000 3.6122 0.0000 1.1596 -9.7509 -11.5305 0.0000 0.0000 -0.0000 0.0000 0.0000 -0.0000
 -0.3559 32.9214 -10.2149 148.2308 -82.0478 150.0728 -14.0761 16.4829 17.7395 15.6269 0.0000 0.0000 9.0933 21.1200 -1.7089 10.6944 0.0000 0.0000 -3.9253 3.5801 -6.6732 13.5749 0.0000 -0.0000 -10.8650 -22.4982 23.3075 19.5196 0.0000 -0.0000 -8.6614 3.5147 -7.4009 14.2453 -5.1333 8.2897 0.9338 23.5667 -4.7789 -61.0602 -33.0171 -24.3680 17.5390 22.7947 2.2030 -8.4892 5.5394 -67.9547 0.0000 0.8391 -0.0000 8.3955 5.8708 -6.4033 -0.0000 -0.0000 -0.0000 -0.0000 -0.0000 -0.0000 20.2599 -21.0041 -2.7241 -3.5386 18.9256 68.1189 -0.0000 3.4829 0.0000 1.4258 -9.9295 -11.5449 0.0000 -0.0000 -0.0000 0.0000 -0.0000 -0.0000
 -0.4454 32.8918 -10.0622 147.6044 -82.2528 149.4647 -13.5993 15.5179 17.3810 15.5532 -0.0000 0.0000 9.6322 20.4548 -2.2228 10.1571 0.0000 -0.0000 -3.8660 3.4001 -6.9967 13.8808 0.0000 0.0000 -11.0104 -22.4888 23.6466 19.5196 -0.0000 0.0000 -8.6795 3.5029 -7.3983 14.1043 -5.1275 8.3722 0.9165 23.5345 -4.7566 -61.5160 -33.0607 -24.5014 17.4311 22.7246 2.2365 -8.8949 5.2676 -67.7367 0.0000 0.8510 -0.0000 8.8114 6.0856 -6.4408 -0.0000 -0.0000 -0.0000 -0.0000 -0.0000 -0.0000 20.3031 -20.8430 -2.6933 -3.6497 19.7700 68.1845 -0.0000 3.3070 0.0000 1.6468 -10.1233 -11.6891 -0.0000 0.0000 -0.0000 -0.0000 0.0000 -0.0000
 -0.5334 32.8607 -9.9029 146.8460 -82.4909 148.7122 -13.0994 14.4679 17.0189 15.4841 0.0000 0.0000 9.8345 20.7299 -3.5287 10.1845 0.0000 0.0000 -3.8151 3.1741 -7.3237 14.2098 0.0000 0.0000 -11.1334 -22.4752 24.0073 19.5196 0.0000 -0.0000 -8.6797 3.4758 -7.3935 13.9551 -5.1288 8.4765 0.8638 23.4564 -4.6807 -61.9480 -33.0447 -24.6382 17.3012 22.6422 2.2821 -9.3248 5.0222 -67.5564 0.0000 0.8605 -0.0000 9.1934 6.2714 -6.4386 0.0000 0.0000 0.0000 0.0000 0.0000 0.0000 20.3336 -20.6824 -2.6805 -3.8686 20.3774 68.2513 -0.0000 3.1920 0.0000 2.0658 -10.4289 -11.7490 -0.0000 -0.0000 -0.0000 -0.0000 -0.0000 -0.0000
 -0.6177 32.8275 -9.7450 145.6183 -82.7886 147.4299 -12.6743 13.4000 16.7346 15.4742 -0.0000 0.0000 9.8704 21.3656 -4.9443 10.5648 0.0000 -0.0000 -3.7859 2.8808 -7.5837 14.5551 0.0000 -0.0000 -11.2496 -22.4662 24.3258 19.5196 -0.0000 -0.0000 -8.6660 3.4228 -7.3715 13.7687 -5.1514 8.5970 0.7626 23.4023 -4.5802 -62.3191 -33.0743 -24.7770 17.1346 22.4828 2.4256 -9.7291 4.8685 -67.4432 0.0000 0.8335 -0.0000 9.4875 6.2972 -6.3012 0.0000 -0.0000 0.0000 0.0000 -0.0000 0.0000 20.2715 -20.5111 -2.6820 -4.1005 20.8206 68.3354 -0.0000 3.0103 0.0000 2.3800 -10.5523 -11.8437 0.0000 -0.0000 -0.0000 0.0000 -0.0000 -0.0000
 -0.7159 32.7948 -9.5682 145.5670 -83.0456 147.4448 -12.0581 12.5532 16.2983 15.4595 0.0000 -0.0000 9.6657 21.6971 -6.1200 10.7560 0.0000 0.0000 -3.6507 2.6411 -8.0196 14.9315 -0.0000 0.0000 -11.3653 -22.3621 24.8779 19.5196 0.0000 0.0000 -8.6152 3.4129 -7.4224 13.6486 -5.1126 8.7283 0.8526 23.2694 -4.4994 -62.9506 -32.9349 -24.9220 17.0210 22.4357 2.4568 -10.2361 4.5238 -67.3430 0.0000 0.8741 -0.0000 9.9573 6.4872 -6.3658 -0.0000 0.0000 0.0000 -0.0000 0.0000 0.0000 20.3439 -20.3987 -2.6684 -4.4233 21.5781 68.3325 -0.0000 2.8356 0.0000 2.4960 -10.7290 -11.9816 0.0000 0.0000 -0.0000 0.0000 0.0000 -0.0000
 -0.8035 32.7603 -9.3983 144.4342 -83.2966 146.2358 -11.7391 11.8474 16.0523 15.6176 -0.0000 -0.0000 9.0478 21.8013 -6.8242 10.9133 -0.0000 0.0000 -3.6141 2.4503 -8.2698 15.2702 0.0000 -0.0000 -11.4160 -22.4297 25.0696 19.5196 -0.0000 0.0000 -8.6501 3.4125 -7.3706 13.5014 -5.0894 8.8579 0.6739 23.1794 -4.3364 -63.2258 -32.9316 -25.0527 16.8731 22.1377 2.6316 -10.5880 4.2836 -67.3197 0.0000 0.8015 -0.0000 10.3032 6.5882 -6.2750 0.0000 -0.0000 0.0000 0.0000 -0.0000 0.0000 20.2546 -20.1780 -2.6928 -4.7651 21.7009 68.4107 -0.0000 2.7188 0.0000 2.8314 -10.7992 -11.9860 0.0000 -0.0000 0.0000 0.0000 -0.0000 0.0000
 -0.9015 32.7281 -9.2065 144.4165 -83.6283 146.3383 -11.2152 11.4038 15.5574 15.7098 -0.0000 0.0000 8.2677 22.0404 -7.2586 11.4671 0.0000 0.0000 -3.4282 2.1338 -8.7941 15.6423 -0.0000 0.0000 -11.4967 -22.3126 25.6354 19.5196 -0.0000 -0.0000 -8.5758 3.3763 -7.4613 13.4410 -5.0795 8.9628 0.6199 22.9909 -4.0853 -63.7508 -32.6520 -25.1635 16.7655 22.0859 2.6693 -11.1113 3.7494 -67.3080 0.0000 0.8822 -0.0000 10.8331 6.8468 -6.2953 -0.0000 0.0000 -0.0000 -0.0000 0.0000 -0.0000 20.2437 -19.9578 -2.6686 -5.0721 22.2790 68.3128 -0.0000 2.6420 0.0000 2.8867 -10.9511 -12.0550 -0.0000 -0.0000 -0.0000 -0.0000 -0.0000 -0.0000
 -0.9950 32.6970 -9.0148 143.9489 -83.9637 145.9449 -10.8126 11.1136 15.1150 15.8042 0.0000 -0.0000 7.4036 22.1594 -7.5425 11.8187 0.0000 -0.0000 -3.2745 1.8326 -9.2615 15.9894 -0.0000 0.0000 -11.5145 -22.2427 26.0629 19.5196 -0.0000 -0.0000 -8.5465 3.3767 -7.5149 13.3888 -5.0443 9.0637 0.4134 22.8195 -3.8337 -64.0794 -32.5117 -25.2759 16.6840 21.8078 2.7582 -11.5873 3.2325 -67.3238 0.0000 0.9112 -0.0000 11.2658 7.0230 -6.2194 0.0000 -0.0000 0.0000 0.0000 -0.0000 0.0000 20.2144 -19.6830 -2.6193 -5.4605 22.3820 68.2436 -0.0000 2.6769 0.0000 3.2923 -11.2428 -11.9610 0.0000 0.0000 -0.0000 0.0000 0.0000 -0.0000
 -1.0885 32.6678 -8.8186 143.2994 -84.2955 145.3988 -10.4404 10.9840 14.6334 15.8410 0.0000 -0.0000 6.5082 22.1962 -7.7675 12.0706 0.0000 -0.0000 -3.1384 1.4625 -9.7740 16.3237 0.0000 -0.0000 -11.4903 -22.1145 26.5055 19.5196 -0.0000 0.0000 -8.5539 3.3675 -7.5859 13.3815 -5.0309 9.1457 0.1909 22.6701 -3.5620 -64.4050 -32.3533 -25.3720 16.5985 21.5597 2.8162 -12.0856 2.5595 -67.3476 0.0000 1.0177 -0.0000 11.6606 7.2161 -6.1542 -0.0000 0.0000 -0.0000 -0.0000 0.0000 -0.0000 20.1817 -19.3917 -2.5248 -5.8148 22.8166 68.0731 -0.0000 2.6103 0.0000 2.9788 -11.1960 -12.2814 -0.0000 0.0000 0.0000 -0.0000 0.0000 0.0000
 -1.1774 32.6404 -8.6148 142.8953 -84.5942 145.1657 -10.0405 10.9841 14.0560 15.8095 0.0000 -0.0000 5.4935 22.3317 -7.6252 12.6816 0.0000 0.0000 -3.0273 1.1096 -10.3757 16.6815 0.0000 -0.0000 -11.4352 -21.9496 26.9961 19.5196 0.0000 0.0000 -8.5388 3.3903 -7.6974 13.3592 -4.9829 9.1959 -0.1517 22.5412 -3.2855 -64.5964 -32.2758 -25.4570 16.5744 21.2798 2.8352 -12.6415 1.7444 -67.3866 0.0000 1.1739 -0.0000 11.9057 7.3165 -6.0195 -0.0000 0.0000 -0.0000 -0.0000 0.0000 -0.0000 20.2466 -19.0107 -2.3533 -6.2352 23.1254 67.8142 -0.0000 2.5581 0.0000 3.2131 -11.3000 -12.0799 -0.0000 0.0000 0.0000 -0.0000 0.0000 0.0000
